{
  "accessors": [
    {
      "bufferView": 2,
      "componentType": 5126,
      "count": 12423,
      "max": [
        36.350013732910156,
        26.733154296875,
        3.2491016387939453
      ],
      "min": [
        -141.94432067871094,
        -135.99183654785156,
        -125.73777770996094
      ],
      "type": "VEC3"
    },
    {
      "bufferView": 2,
      "byteOffset": 149076,
      "componentType": 5126,
      "count": 12423,
      "max": [
        1.0,
        1.0,
        1.0
      ],
      "min": [
        -1.0,
        -1.0,
        -1.0
      ],
      "type": "VEC3"
    },
    {
      "bufferView": 3,
      "componentType": 5126,
      "count": 12423,
      "max": [
        1.0,
        1.0,
        1.0,
        1.0
      ],
      "min": [
        -1.0,
        -1.0,
        -1.0,
        -1.0
      ],
      "type": "VEC4"
    },
    {
      "bufferView": 1,
      "componentType": 5126,
      "count": 12423,
      "max": [
        0.9995169639587402,
        0.9892349243164063
      ],
      "min": [
        0.00048065185546875,
        0.00048065185546875
      ],
      "type": "VEC2"
    },
    {
      "bufferView": 1,
      "byteOffset": 99384,
      "componentType": 5126,
      "count": 12423,
      "max": [
        0.9995169639587402,
        0.9892349243164063
      ],
      "min": [
        0.00048065185546875,
        0.00048065185546875
      ],
      "type": "VEC2"
    },
    {
      "bufferView": 1,
      "byteOffset": 198768,
      "componentType": 5126,
      "count": 12423,
      "max": [
        0.9995169639587402,
        0.9892349243164063
      ],
      "min": [
        0.00048065185546875,
        0.00048065185546875
      ],
      "type": "VEC2"
    },
    {
      "bufferView": 0,
      "componentType": 5125,
      "count": 30729,
      "type": "SCALAR"
    }
  ],
  "asset": {
    "extras": {
      "author": "fan7774 (https://sketchfab.com/denyshroshko)",
      "license": "CC-BY-NC-4.0 (http://creativecommons.org/licenses/by-nc/4.0/)",
      "source": "https://sketchfab.com/3d-models/tv-old-tv-retro-tv-f13b9a45c0d649dc90ebac5f7717cebf",
      "title": "TV , Old TV , Retro TV"
    },
    "generator": "Sketchfab-14.32.0",
    "version": "2.0"
  },
  "bufferViews": [
    {
      "buffer": 0,
      "byteLength": 122916,
      "name": "floatBufferViews",
      "target": 34963
    },
    {
      "buffer": 0,
      "byteLength": 298152,
      "byteOffset": 122916,
      "byteStride": 8,
      "name": "floatBufferViews",
      "target": 34962
    },
    {
      "buffer": 0,
      "byteLength": 298152,
      "byteOffset": 421068,
      "byteStride": 12,
      "name": "floatBufferViews",
      "target": 34962
    },
    {
      "buffer": 0,
      "byteLength": 198768,
      "byteOffset": 719220,
      "byteStride": 16,
      "name": "floatBufferViews",
      "target": 34962
    }
  ],
  "buffers": [
    {
      "byteLength": 917988,
      "uri": "scene.bin"
    }
  ],
  "images": [
    {
      "uri": "textures/material_baseColor.png"
    },
    {
      "uri": "textures/material_metallicRoughness.png"
    },
    {
      "uri": "textures/material_normal.png"
    }
  ],
  "materials": [
    {
      "doubleSided": true,
      "name": "material",
      "normalTexture": {
        "index": 2,
        "texCoord": 1
      },
      "pbrMetallicRoughness": {
        "baseColorTexture": {
          "index": 0
        },
        "metallicRoughnessTexture": {
          "index": 1
        }
      }
    }
  ],
  "meshes": [
    {
      "name": "Cylinder_1_0",
      "primitives": [
        {
          "attributes": {
            "NORMAL": 1,
            "POSITION": 0,
            "TANGENT": 2,
            "TEXCOORD_0": 3,
            "TEXCOORD_1": 4,
            "TEXCOORD_2": 5
          },
          "indices": 6,
          "material": 0,
          "mode": 4
        }
      ]
    }
  ],
  "nodes": [
    {
      "children": [
        1
      ],
      "matrix": [
        1.0,
        0.0,
        0.0,
        0.0,
        0.0,
        2.220446049250313e-16,
        -1.0,
        0.0,
        0.0,
        1.0,
        2.220446049250313e-16,
        0.0,
        0.0,
        0.0,
        0.0,
        1.0
      ],
      "name": "Sketchfab_model"
    },
    {
      "children": [
        2
      ],
      "matrix": [
        0.009999999776482582,
        0.0,
        0.0,
        0.0,
        0.0,
        0.0,
        0.009999999776482582,
        0.0,
        0.0,
        -0.009999999776482582,
        0.0,
        0.0,
        0.0,
        0.0,
        0.0,
        1.0
      ],
      "name": "retrotv2.fbx"
    },
    {
      "children": [
        3
      ],
      "name": "RootNode"
    },
    {
      "children": [
        4
      ],
      "matrix": [
        -5.372425143145809e-08,
        -1.2290675640106168,
        7.32581268247574e-08,
        0.0,
        -2.0024052609487516e-07,
        -7.32581180917071e-08,
        -1.2290675640106015,
        0.0,
        1.723400473594641,
        -7.533224669543715e-08,
        -2.807775764049187e-07,
        0.0,
        58.70376968383789,
        162.1683349609375,
        -67.14315032958984,
        1.0
      ],
      "name": "Cylinder"
    },
    {
      "mesh": 0,
      "name": "Cylinder_1_0"
    }
  ],
  "samplers": [
    {
      "magFilter": 9729,
      "minFilter": 9987,
      "wrapS": 10497,
      "wrapT": 10497
    }
  ],
  "scene": 0,
  "scenes": [
    {
      "name": "Sketchfab_Scene",
      "nodes": [
        0
      ]
    }
  ],
  "textures": [
    {
      "sampler": 0,
      "source": 0
    },
    {
      "sampler": 0,
      "source": 1
    },
    {
      "sampler": 0,
      "source": 2
    }
  ]
}
